<svg class="animated" id="freepik_stories-wristwatch" xmlns="http://www.w3.org/2000/svg" viewBox="0 0 500 500" version="1.1" xmlns:xlink="http://www.w3.org/1999/xlink" xmlns:svgjs="http://svgjs.com/svgjs"><style>svg#freepik_stories-wristwatch:not(.animated) .animable {opacity: 0;}svg#freepik_stories-wristwatch.animated #freepik--Shadow--inject-32 {animation: 1s 1 forwards cubic-bezier(.36,-0.01,.5,1.38) fadeIn;animation-delay: 0s;}svg#freepik_stories-wristwatch.animated #freepik--Wristwatch--inject-32 {animation: 1.5s 1 forwards cubic-bezier(.36,-0.01,.5,1.38) slideDown,1.5s Infinite  linear floating;animation-delay: 0s,1.5s;}svg#freepik_stories-wristwatch.animated #freepik--Hourglass--inject-32 {animation: 0.5s 1 forwards cubic-bezier(.36,-0.01,.5,1.38) slideRight,1.5s Infinite  linear floating;animation-delay: 0s,0.5s;}svg#freepik_stories-wristwatch.animated #freepik--Character--inject-32 {animation: 1s 1 forwards cubic-bezier(.36,-0.01,.5,1.38) slideLeft,1.5s Infinite  linear floating;animation-delay: 0s,1s;}            @keyframes fadeIn {                0% {                    opacity: 0;                }                100% {                    opacity: 1;                }            }                    @keyframes slideDown {                0% {                    opacity: 0;                    transform: translateY(-30px);                }                100% {                    opacity: 1;                    transform: translateY(0);                }            }                    @keyframes floating {                0% {                    opacity: 1;                    transform: translateY(0px);                }                50% {                    transform: translateY(-10px);                }                100% {                    opacity: 1;                    transform: translateY(0px);                }            }                    @keyframes slideRight {                0% {                    opacity: 0;                    transform: translateX(30px);                }                100% {                    opacity: 1;                    transform: translateX(0);                }            }                    @keyframes slideLeft {                0% {                    opacity: 0;                    transform: translateX(-30px);                }                100% {                    opacity: 1;                    transform: translateX(0);                }            }        </style><g id="freepik--Shadow--inject-32" class="animable" style="transform-origin: 250px 416.24px;"><ellipse id="freepik--path--inject-32" cx="250" cy="416.24" rx="193.89" ry="11.32" style="fill: rgb(245, 245, 245); transform-origin: 250px 416.24px;" class="animable"></ellipse></g><g id="freepik--Wristwatch--inject-32" class="animable" style="transform-origin: 163.335px 291.93px;"><path d="M199.15,372.18H156.39a2.09,2.09,0,0,1,0-4.17h41.27l9-26H156.68a2.08,2.08,0,0,1,0-4.16h52.87a2.13,2.13,0,0,1,1.7.87,2.09,2.09,0,0,1,.27,1.89l-10.41,30.18A2.09,2.09,0,0,1,199.15,372.18Z" style="fill: #77FFC0; transform-origin: 183.039px 355.015px;" id="elvmwv8xy2po" class="animable"></path><g id="elywnatd2lkbb"><path d="M211.52,340.59l-9.82,28.5-.59,1.68a2.08,2.08,0,0,1-2,1.4H156.39a2.08,2.08,0,1,1,0-4.16h41.27l.25-.74,6.75-19.57,2-5.71H156.69a2.08,2.08,0,0,1,0-4.16h52.86a2.09,2.09,0,0,1,1.7.87,2,2,0,0,1,.11.2A2.08,2.08,0,0,1,211.52,340.59Z" style="fill: rgb(255, 255, 255); opacity: 0.4; transform-origin: 182.97px 355px;" class="animable" id="elkcqjnfnxgyd"></path></g><g id="elywyeawm66xr"><path d="M204.66,347.7l2-5.71H156.69a2.08,2.08,0,0,1,0-4.16h52.86a2.09,2.09,0,0,1,1.7.87,2,2,0,0,1,.11.2A39,39,0,0,1,204.66,347.7Z" style="isolation: isolate; opacity: 0.2; transform-origin: 182.985px 342.765px;" class="animable" id="elh5l51d24rhn"></path></g><g id="elrwwr26i6sa"><path d="M201.7,369.09l-.59,1.68a2.08,2.08,0,0,1-2,1.4H176.54c.19-1.07.47-2.68.74-4.16h20.38l.25-.74A12,12,0,0,0,201.7,369.09Z" style="isolation: isolate; opacity: 0.2; transform-origin: 189.12px 369.72px;" class="animable" id="elgyu871l41hj"></path></g><polygon points="195.89 366.72 119.83 366.72 73.03 413.09 73.03 416.88 253.65 416.88 253.65 413.09 195.89 366.72" style="fill: #77FFC0; transform-origin: 163.34px 391.8px;" id="elw8opkvf2eb" class="animable"></polygon><g id="elo0q0p35epwo"><polygon points="253.64 413.09 253.64 416.88 146.77 416.88 146.77 413.09 73.03 413.09 119.83 366.72 195.89 366.72 253.64 413.09" style="fill: rgb(255, 255, 255); opacity: 0.6; transform-origin: 163.335px 391.8px;" class="animable" id="elu9nzypkje7n"></polygon></g><g id="elw4c9zo3xf1"><polygon points="139.47 366.77 146.77 413.09 253.65 413.09 195.89 366.72 139.47 366.77" style="fill: rgb(255, 255, 255); opacity: 0.2; transform-origin: 196.56px 389.905px;" class="animable" id="elhpwblhvind4"></polygon></g><g id="elj8hlsajcbib"><rect x="73.02" y="413.09" width="73.75" height="3.79" style="fill: rgb(255, 255, 255); opacity: 0.4; transform-origin: 109.895px 414.985px;" class="animable" id="elfcgppewlv7"></rect></g><path d="M143.38,230.85l-7.44-4.39H96.18A1.23,1.23,0,0,0,95,227.55L93,243.3a1.23,1.23,0,0,0,1.23,1.38H133.7l6.3,3.72a1.53,1.53,0,0,0,2.29-1.13l1.84-14.91A1.55,1.55,0,0,0,143.38,230.85Z" style="fill: rgb(38, 50, 56); transform-origin: 118.565px 237.535px;" id="el81xuvq8s6e8" class="animable"></path><path d="M138.52,320.11H98.91a3.31,3.31,0,0,1-3.38-3.47l.85-22.88A1.77,1.77,0,0,1,98,292.11a1.39,1.39,0,0,1,1.51,1.45l-.84,22.88a.56.56,0,0,0,.57.58h39.6a.39.39,0,0,0,.39-.37l.85-22.89a1.77,1.77,0,0,1,1.62-1.65,1.38,1.38,0,0,1,1.51,1.45l-.84,22.88a3.81,3.81,0,0,1-1.2,2.58A3.86,3.86,0,0,1,138.52,320.11Z" style="fill: #77FFC0; transform-origin: 119.369px 306.107px;" id="el2d1lu67n6at" class="animable"></path><path d="M122.18,307.27l.52-14.06a.87.87,0,0,0-.89-.91h-2.64a.63.63,0,0,0-.63.59l-.53,14.3a.91.91,0,0,0,.94,1h2.31A.94.94,0,0,0,122.18,307.27Z" style="fill: #77FFC0; transform-origin: 120.353px 300.245px;" id="elmtbw2jza58e" class="animable"></path><path d="M185.44,354.79c-3.88,3-8,4.66-12.24,4.66H131.58c-15.85,0-29.17-22.67-35-55.42a215.88,215.88,0,0,1-3.09-40.82c.4-26.5,5.18-50.48,12.56-67.88A10.69,10.69,0,0,1,114,189a9.92,9.92,0,0,1,1.89-.18h37.23c-.76,1.42-1.5,2.89-2.22,4.44-.41.91-.83,1.83-1.22,2.76-7.66,17.94-12.09,41.84-12.49,67.28a215.84,215.84,0,0,0,3.15,41.13c0,.2.08.39.11.58a130.36,130.36,0,0,0,8.21,28.33c3.15,7.28,6.87,13.24,11.06,17.49s8.8,6.57,13.42,6.57a16.59,16.59,0,0,0,8.52-2.58Z" style="fill: rgb(38, 50, 56); transform-origin: 139.445px 274.135px;" id="elwheo0s4pu3q" class="animable"></path><g id="el5lpcwx5l8p"><path d="M153.15,188.79c-.76,1.42-1.5,2.89-2.22,4.44-.41.91-.83,1.83-1.22,2.76-7.66,17.94-12.09,41.84-12.49,67.28a215.84,215.84,0,0,0,3.15,41.13H123.53l-1.12,3.18a7.53,7.53,0,0,1-6.15-3.18H99.86l-1.21-1a217.44,217.44,0,0,1-3.09-40.81c.41-26.5,5.19-50.48,12.57-67.89A10.73,10.73,0,0,1,114,189a9.92,9.92,0,0,1,1.89-.18Z" style="isolation: isolate; opacity: 0.2; transform-origin: 124.336px 248.185px;" class="animable" id="elely1vq4fqpg"></path></g><path d="M121.88,309.44H118a1.45,1.45,0,0,1-1.44-1.44h0a1.45,1.45,0,0,1,1.44-1.44h3.86a1.45,1.45,0,0,1,1.44,1.44h0A1.45,1.45,0,0,1,121.88,309.44Z" id="elu9crrachl3i" class="animable" style="transform-origin: 119.93px 308px;"></path><path d="M131.65,336.4H127.8a1.45,1.45,0,0,1-1.44-1.44h0a1.45,1.45,0,0,1,1.44-1.44h3.85a1.44,1.44,0,0,1,1.44,1.44h0A1.44,1.44,0,0,1,131.65,336.4Z" id="el425c7ovd38" class="animable" style="transform-origin: 129.725px 334.96px;"></path><path d="M209.55,202.81h-2.11c-3.77-11.74-8.75-21.19-14.67-27.21-4.28-4.35-8.79-6.56-13.41-6.56-9,0-18.17,8.78-25.31,24.19-.41.9-.83,1.82-1.22,2.75-7.66,18-12.09,41.85-12.49,67.28a223.84,223.84,0,0,0,1.74,32,1,1,0,0,1-1,1.15H99.44a1,1,0,0,1-1-.89,222.87,222.87,0,0,1-1.77-32.29c.83-53.15,19.2-96.25,41.05-96.25h41.63C191.76,167,202.64,181,209.55,202.81Z" style="fill: rgb(38, 50, 56); transform-origin: 153.092px 231.695px;" id="elwwdd200dlr" class="animable"></path><g id="el9ulfgmnm6g"><path d="M142.37,236c-.79,5.77-1.36,11.72-1.7,17.79a1.47,1.47,0,0,1-.85.26H102a6,6,0,0,1-3-.82l-1.86-1.09c.39-6.35,1-12.51,1.92-18.42l2.19,1.3a5.83,5.83,0,0,0,3,.82h37.5A1.59,1.59,0,0,1,142.37,236Z" style="isolation: isolate; opacity: 0.2; transform-origin: 119.755px 243.885px;" class="animable" id="elpqnwh954j08"></path></g><path d="M124,296.38h-7.29a1.21,1.21,0,0,0,1.21-1.32l-.26-2.89a.83.83,0,0,1,.82-.9h2.78a1.17,1.17,0,0,1,1.15,1.05l.22,2.8A1.39,1.39,0,0,0,124,296.38Z" id="el20pf03jsg9v" class="animable" style="transform-origin: 120.355px 293.825px;"></path><path d="M99.51,293.56l-.76,20.73c-1-4.18-1.9-8.58-2.64-13.17l.27-7.36A1.77,1.77,0,0,1,98,292.11,1.39,1.39,0,0,1,99.51,293.56Z" style="fill: rgb(38, 50, 56); transform-origin: 97.8108px 303.197px;" id="elhjgcutj87p" class="animable"></path><path d="M122.7,293.21l-.52,14.06a.94.94,0,0,1-.92.88H119a.91.91,0,0,1-.94-.95l.53-14.31a.63.63,0,0,1,.63-.59h2.64A.86.86,0,0,1,122.7,293.21Z" style="fill: rgb(38, 50, 56); transform-origin: 120.38px 300.225px;" id="elala9s3r7p1" class="animable"></path><path d="M100.29,320.12H98.91A3.29,3.29,0,0,1,95.74,318a3.51,3.51,0,0,1-.2-1.3l.58-15.53.27-7.35A1.79,1.79,0,0,1,98,292.11a1.42,1.42,0,0,1,1,.32,1.32,1.32,0,0,1,.52,1.13l-.76,20.74-.08,2.14a.54.54,0,0,0,.56.58h.2C99.72,318.07,100,319.1,100.29,320.12Z" style="fill: #77FFC0; transform-origin: 97.9139px 306.114px;" id="elko5dh15ia58" class="animable"></path><path d="M122.71,293.22l-.51,13.7v.35a1,1,0,0,1-.93.89H119a.91.91,0,0,1-.93-1l.53-14.3a.63.63,0,0,1,.62-.6h2.64A.88.88,0,0,1,122.71,293.22Z" style="fill: #77FFC0; transform-origin: 120.39px 300.21px;" id="el8ma7q99x24f" class="animable"></path><g id="elu4mc45nrh7"><path d="M122.71,293.22l-.51,13.7h-1.88a.93.93,0,0,1-.94-1l.47-12.71a1,1,0,0,1,1-.94h1A.88.88,0,0,1,122.71,293.22Z" style="fill: rgb(255, 255, 255); opacity: 0.2; transform-origin: 121.045px 299.595px;" class="animable" id="ele1mi0y3y4da"></path></g><g id="eletlgh2g039"><path d="M99,292.43l-1.13,24.73a1.06,1.06,0,0,1-1.31,1l-.82-.19a3.51,3.51,0,0,1-.2-1.3l.58-15.53.27-7.35A1.79,1.79,0,0,1,98,292.11,1.42,1.42,0,0,1,99,292.43Z" style="fill: rgb(255, 255, 255); opacity: 0.2; transform-origin: 97.2689px 305.148px;" class="animable" id="el9ts6uj2ya3"></path></g><path d="M144,233.08l-1.87,15.16a1.52,1.52,0,0,1-1.52,1.34H102.78a6,6,0,0,1-3-.82l-6.21-3.67a1.23,1.23,0,0,1-.6-1.21l1.91-15.55a1.23,1.23,0,0,1,1.85-.91l5.3,3.12a5.89,5.89,0,0,0,3,.82h37.49a1.57,1.57,0,0,1,1.44,1A1.66,1.66,0,0,1,144,233.08Z" style="fill: rgb(38, 50, 56); transform-origin: 118.492px 238.414px;" id="elxqewemm79j" class="animable"></path><g id="eltlgiz92rfgi"><path d="M144,232.34a1.57,1.57,0,0,1-1.22.59H104.86a6,6,0,0,1-3-.82l-6.21-3.66a.84.84,0,1,1,1.08-1l5.3,3.12a5.89,5.89,0,0,0,3,.82h37.49A1.57,1.57,0,0,1,144,232.34Z" style="fill: rgb(255, 255, 255); opacity: 0.2; transform-origin: 119.537px 229.871px;" class="animable" id="elwpux2k9fl9a"></path></g><path d="M188.81,341.35a17.14,17.14,0,0,1-10.54,4H142.44c-.29,0-.58,0-.86,0l-.34,0-.76-.08-.11,0c-.31,0-.62-.1-.93-.17a6.66,6.66,0,0,1-.77-.19l-.13,0-.53-.16-.65-.22-.6-.23-.47-.21h0a18.46,18.46,0,0,1-1.65-.85l-.79-.48a2.51,2.51,0,0,0-.29-.2c-.26-.17-.52-.35-.77-.54l-.15-.11c-.26-.19-.51-.39-.77-.6a27.51,27.51,0,0,1-2.7-2.53l-.8-.88-.85-1c-.25-.3-.48-.61-.73-.93-.08-.11-.17-.21-.25-.33l-.66-.9c-.27-.39-.54-.77-.8-1.17s-.51-.78-.75-1.17c-.53-.85-1-1.73-1.55-2.64-.25-.45-.5-.91-.74-1.37l-.72-1.43c-.24-.47-.46-1-.69-1.45-.07-.14-.13-.28-.19-.43a8.1,8.1,0,0,1,7.5-11.13h15.62a14.81,14.81,0,0,1,13.61,8.94l0,.08a67.4,67.4,0,0,0,3.38,6.75c.34.6.69,1.19,1,1.75a38.58,38.58,0,0,0,5.09,6.55c3.68,3.74,7.58,5.65,11.56,5.65a14.24,14.24,0,0,0,7.33-2.22Z" style="fill: #77FFC0; transform-origin: 154.331px 329.65px;" id="elp6n440bh1vs" class="animable"></path><g id="el7fukl85xpgo"><path d="M188.81,341.35a17.14,17.14,0,0,1-10.54,4H142.44c-.29,0-.58,0-.86,0l-.34,0-.76-.08-.11,0c-.31,0-.62-.1-.93-.17a6.66,6.66,0,0,1-.77-.19l-.13,0-.53-.16-.65-.22-.6-.23-.47-.21h0a18.46,18.46,0,0,1-1.65-.85l-.79-.48a2.51,2.51,0,0,0-.29-.2c-.26-.17-.52-.35-.77-.54l-.15-.11c-.26-.19-.51-.39-.77-.6a27.51,27.51,0,0,1-2.7-2.53l-.8-.88-.85-1c-.25-.3-.48-.61-.73-.93-.08-.11-.17-.21-.25-.33l-.66-.9c-.27-.39-.54-.77-.8-1.17s-.51-.78-.75-1.17c-.53-.85-1-1.73-1.55-2.64-.25-.45-.5-.91-.74-1.37l-.72-1.43c-.24-.47-.46-1-.69-1.45-.07-.14-.13-.28-.19-.43a8.1,8.1,0,0,1,7.5-11.13h15.62a14.81,14.81,0,0,1,13.61,8.94l0,.08a67.4,67.4,0,0,0,3.38,6.75c.34.6.69,1.19,1,1.75a38.58,38.58,0,0,0,5.09,6.55c3.68,3.74,7.58,5.65,11.56,5.65a14.24,14.24,0,0,0,7.33-2.22Z" style="fill: rgb(255, 255, 255); opacity: 0.6; transform-origin: 154.331px 329.65px;" class="animable" id="elzlu9kdbpqy"></path></g><path d="M209.56,210.53h-1.82c-3.25-10.11-7.53-18.23-12.63-23.42-3.67-3.74-7.56-5.65-11.54-5.65-5.91,0-11.87,4.37-17.08,12.28-.36.54-.71,1.09-1.05,1.66a65.93,65.93,0,0,0-3.65,6.89q-.54,1.16-1,2.37-1.44,3.34-2.68,7a14.64,14.64,0,0,1-13.83,10H127.88a7.83,7.83,0,0,1-7.52-10l.09-.31c.09-.27.18-.53.28-.79.48-1.4,1-2.76,1.5-4.07,1-2.47,2-4.81,3.09-7,.2-.42.41-.83.62-1.23s.39-.74.59-1.1.34-.63.52-.94a58.82,58.82,0,0,1,3.14-5q.47-.68,1-1.29c.32-.44.66-.87,1-1.27l.51-.61a32.56,32.56,0,0,1,3.82-3.8c.29-.25.59-.48.88-.71s.36-.27.54-.4.4-.29.61-.42l.33-.22c.32-.2.62-.4.93-.57a18.35,18.35,0,0,1,3-1.39l.84-.27.08,0c.34-.09.67-.18,1-.25l.08,0,.79-.14c.32-.05.65-.09,1-.11l.4,0,.77,0h35.84C194.25,179.67,203.61,191.72,209.56,210.53Z" style="fill: #77FFC0; transform-origin: 164.807px 200.715px;" id="elcsvnnie4u86" class="animable"></path><g id="el0pissfxu33sg"><path d="M209.56,210.53h-1.82c-3.25-10.11-7.53-18.23-12.63-23.42-3.67-3.74-7.56-5.65-11.54-5.65-5.91,0-11.87,4.37-17.08,12.28-.36.54-.71,1.09-1.05,1.66a65.93,65.93,0,0,0-3.65,6.89q-.54,1.16-1,2.37-1.44,3.34-2.68,7a14.64,14.64,0,0,1-13.83,10H127.88a7.83,7.83,0,0,1-7.52-10l.09-.31c.09-.27.18-.53.28-.79.48-1.4,1-2.76,1.5-4.07,1-2.47,2-4.81,3.09-7,.2-.42.41-.83.62-1.23s.39-.74.59-1.1.34-.63.52-.94a58.82,58.82,0,0,1,3.14-5q.47-.68,1-1.29c.32-.44.66-.87,1-1.27l.51-.61a32.56,32.56,0,0,1,3.82-3.8c.29-.25.59-.48.88-.71s.36-.27.54-.4.4-.29.61-.42l.33-.22c.32-.2.62-.4.93-.57a18.35,18.35,0,0,1,3-1.39l.84-.27.08,0c.34-.09.67-.18,1-.25l.08,0,.79-.14c.32-.05.65-.09,1-.11l.4,0,.77,0h35.84C194.25,179.67,203.61,191.72,209.56,210.53Z" style="fill: rgb(255, 255, 255); opacity: 0.6; transform-origin: 164.807px 200.715px;" class="animable" id="elrhkpnp4cse"></path></g><path d="M174.79,281.49c-1.65,14.62-4.91,28-9.54,38.88q-.52,1.22-1.05,2.37c-6.15,13.27-14,20.82-21.79,20.82a14.24,14.24,0,0,1-8.2-2.81H131.3c3.47,3,7.21,4.61,11.14,4.61h44.79c16.12,0,30-27.26,34.13-63.87Z" style="fill: #77FFC0; transform-origin: 176.33px 313.425px;" id="el0y75npp1owlc" class="animable"></path><g id="elgpp4lz84ys"><path d="M174.79,281.49c-1.65,14.62-4.91,28-9.54,38.88q-.52,1.22-1.05,2.37c-6.15,13.27-14,20.82-21.79,20.82a14.24,14.24,0,0,1-8.2-2.81H131.3c3.47,3,7.21,4.61,11.14,4.61h44.79c16.12,0,30-27.26,34.13-63.87Z" style="fill: rgb(255, 255, 255); opacity: 0.6; transform-origin: 176.33px 313.425px;" class="animable" id="elowkr29x1ip"></path></g><g id="eld34z407xa1"><path d="M176.58,281.49c-2.32,20.69-7.77,38.39-15,49.88-5.56,8.83-12.15,14-19.16,14-.29,0-.58,0-.86,0l-.34,0-.76-.08-.11,0c-.31,0-.62-.1-.93-.17a6.66,6.66,0,0,1-.77-.19l-.13,0-.53-.16-.65-.22-.6-.23-.47-.21h0a18.46,18.46,0,0,1-1.65-.85l-.79-.48a2.51,2.51,0,0,0-.29-.2c-.26-.17-.52-.35-.77-.54l-.15-.11c-.26-.19-.51-.39-.77-.6a27.51,27.51,0,0,1-2.7-2.53l-.8-.88-.85-1c-.25-.3-.48-.61-.73-.93-.08-.11-.17-.21-.25-.33l-.66-.9c-.27-.39-.54-.77-.8-1.17s-.51-.78-.75-1.17c-.53-.85-1-1.73-1.55-2.64-.25-.45-.5-.91-.74-1.37l-.72-1.43c-.24-.47-.46-1-.69-1.45-.07-.14-.13-.28-.19-.43a8.1,8.1,0,0,1,7.5-11.13h.85A7.4,7.4,0,0,0,122,324.3a47.58,47.58,0,0,0,8.87,13.61c3.68,3.75,7.57,5.65,11.54,5.65,6.32,0,12.68-5,18.14-13.94a72.28,72.28,0,0,0,3.65-6.89c.35-.77.71-1.56,1.05-2.36,4.63-10.86,7.89-24.26,9.54-38.88Z" style="fill: rgb(255, 255, 255); opacity: 0.4; transform-origin: 148.206px 313.43px;" class="animable" id="el7hyf9aqumda"></path></g><path d="M192.49,179.67H147.56v1.8l.18,0c4,0,7.87,1.91,11.55,5.65a49.5,49.5,0,0,1,9.52,15c1.13,2.6,2.16,5.4,3.11,8.37h46.6C212.57,191.71,203.2,179.67,192.49,179.67Z" style="fill: #77FFC0; transform-origin: 183.04px 195.08px;" id="elya1czvyavcm" class="animable"></path><g id="elasvq0jr16zs"><path d="M192.49,179.67H147.56v1.8l.18,0c4,0,7.87,1.91,11.55,5.65a49.5,49.5,0,0,1,9.52,15c1.13,2.6,2.16,5.4,3.11,8.37h46.6C212.57,191.71,203.2,179.67,192.49,179.67Z" style="fill: rgb(255, 255, 255); opacity: 0.6; transform-origin: 183.04px 195.08px;" class="animable" id="elqfi7w5nnoo"></path></g><g id="el7bze6hv025"><path d="M173.74,210.53h-1.82c-.95-3-2-5.77-3.11-8.37a67.58,67.58,0,0,0-3.37-6.76,41.62,41.62,0,0,0-6.14-8.28c-3.68-3.76-7.57-5.65-11.56-5.65-8.22,0-16.54,8.46-22.84,23.19q-1.45,3.45-2.75,7.25a7.4,7.4,0,0,0,7,9.74h-1.31a7.83,7.83,0,0,1-7.52-10c.11-.38.24-.74.37-1.1.48-1.4,1-2.75,1.5-4.07,1-2.47,2-4.81,3.09-7,.2-.42.41-.83.62-1.23s.39-.74.59-1.1.34-.63.52-.94a58.82,58.82,0,0,1,3.14-5c.32-.45.63-.88,1-1.29s.66-.87,1-1.27l.51-.61a32.56,32.56,0,0,1,3.82-3.8c.28-.25.59-.48.88-.71s.36-.27.54-.4.4-.29.61-.42l.33-.22c.32-.2.62-.4.93-.57a18.35,18.35,0,0,1,3-1.39l.84-.27.08,0c.34-.09.67-.18,1-.25l.08,0,.79-.14c.32-.05.65-.09,1-.11l.4,0,.77,0h0c7,0,13.48,5.19,18.78,14.07A81.11,81.11,0,0,1,173.74,210.53Z" style="fill: rgb(255, 255, 255); opacity: 0.4; transform-origin: 146.877px 200.705px;" class="animable" id="elfpthuly40kk"></path></g><path d="M169.15,285.25c-1.91,17-5.69,32.54-11.08,45.17-.4.93-.81,1.85-1.22,2.75-7.15,15.42-16.27,24.19-25.31,24.19A16.57,16.57,0,0,1,122,354.1h-3.39c4,3.46,8.38,5.35,13,5.35h52c18.73,0,34.9-31.67,39.66-74.2Z" style="fill: rgb(38, 50, 56); transform-origin: 170.94px 322.35px;" id="eley8sdq4yj8d" class="animable"></path><g id="el2jep9v37x8o"><path d="M171.24,285.25c-4.76,42.53-20.93,74.2-39.66,74.2-.32,0-.63,0-1,0l-.75-.06c-.22,0-.45-.05-.67-.09l-.43-.06-.32-.06a3.25,3.25,0,0,1-.54-.12l-.55-.13c-.28-.07-.55-.15-.83-.24a12.89,12.89,0,0,1-1.64-.59,15.65,15.65,0,0,1-1.61-.76c-.26-.14-.53-.28-.79-.44s-.53-.31-.79-.48c-.52-.32-1-.69-1.56-1.07h0c-16-12-27.3-48.7-26.63-92.13.42-26.49,5.2-50.47,12.58-67.87a10.74,10.74,0,0,1,5.78-5.73,10.19,10.19,0,0,1,2.73-.72c-.25.46-.5.95-.75,1.44a10.83,10.83,0,0,0-3.41,2.24,10.53,10.53,0,0,0-2.35,3.43c-7.66,18-12.09,41.85-12.49,67.28-.6,38.66,8.25,73,22.52,87.53a26.75,26.75,0,0,0,3.87,3.3,18.26,18.26,0,0,0,4.73,2.45,10.26,10.26,0,0,0,1.2.35l.6.15c.2,0,.4.08.6.11.43.07.87.14,1.31.17l.41,0,.7,0c9,0,18.17-8.77,25.31-24.19.41-.9.83-1.82,1.22-2.76,1.35-3.15,2.59-6.5,3.74-10q1.27-3.93,2.39-8.12a184.36,184.36,0,0,0,4.15-20.75q.43-3.1.8-6.29Z" style="fill: rgb(255, 255, 255); opacity: 0.2; transform-origin: 132.341px 274.175px;" class="animable" id="elrc07rm1iamc"></path></g><path d="M175.05,356.74h-5.29A.72.72,0,0,1,169,356h0a.72.72,0,0,1,.72-.72h5.29a.72.72,0,0,1,.72.72h0A.72.72,0,0,1,175.05,356.74Z" id="elmi99y1kbf7" class="animable" style="transform-origin: 172.365px 356.011px;"></path><path d="M220,202.81H165.82a103.41,103.41,0,0,0-3.61-9.72c-3.15-7.27-6.87-13.23-11.06-17.49S142.36,169,137.74,169c-8.13,0-16.36,7.13-23.14,19.83-.25.46-.5.95-.75,1.44-.91,1.79-1.78,3.68-2.64,5.67-7.66,18-12.09,41.85-12.49,67.28a223.1,223.1,0,0,0,1.9,33.12H99.44a1,1,0,0,1-1-.89,224.44,224.44,0,0,1-1.77-32.3c.44-27.92,5.72-53.06,13.8-70.64.46-1,.94-2,1.43-3C119,175.46,128,167,137.7,167h52C202.16,167,213.05,181,220,202.81Z" style="fill: rgb(38, 50, 56); transform-origin: 158.318px 231.67px;" id="el5a6fb2s4tto" class="animable"></path><g id="elh2ylpc4w4pf"><path d="M99.45,296.38a1,1,0,0,0,1-1.16,223.72,223.72,0,0,1-1.74-32c.4-25.45,4.83-49.34,12.49-67.28,7.3-17.12,17-27,26.53-27,4.62,0,9.14,2.21,13.42,6.56s7.9,10.22,11.05,17.49c1.31,3,2.51,6.27,3.62,9.71h2.11C161,180.94,150.15,167,137.7,167,115.85,167,97.47,210,96.64,263.2a222.69,222.69,0,0,0,1.78,32.28,1,1,0,0,0,1,.9Z" style="fill: rgb(255, 255, 255); opacity: 0.2; transform-origin: 132.268px 231.69px;" class="animable" id="ela9wqhh81w4"></path></g><polygon points="224.86 207.55 229.91 279.55 225.24 286.61 173.79 286.61 162.01 274.05 157.95 216.25 165.51 203.77 220.87 203.77 224.86 207.55" style="fill: #77FFC0; transform-origin: 193.93px 245.19px;" id="elgcq8skkscc7" class="animable"></polygon><path d="M233.66,216.25l-8.54-7.87a7.6,7.6,0,0,0-5.13-2H168.38l-6.57,2.08a6.61,6.61,0,0,0-4.85,2l-7.43,7.87a6.42,6.42,0,0,0-1.73,4.92L151,268a7.4,7.4,0,0,0,2.41,4.91l6.57,6.05a14.33,14.33,0,0,0,9.72,3.86l3.95-2.08h51.61a6.61,6.61,0,0,0,4.85-2l7.43-7.87a6.42,6.42,0,0,0,1.73-4.92l-3.15-44.77A7.4,7.4,0,0,0,233.66,216.25Z" style="fill: #77FFC0; transform-origin: 193.535px 244.6px;" id="el2rdc2r3l1t9" class="animable"></path><g id="eln7gyl10z5n"><path d="M178.55,280.76a14.35,14.35,0,0,1-9.73-3.86l-6.57-6a7.47,7.47,0,0,1-2.41-4.92l-3.14-44.77a6.44,6.44,0,0,1,1.72-4.91l7.44-7.87a6.59,6.59,0,0,1,4.84-2H220a7.6,7.6,0,0,1,5.13,2l8.54,7.87a7.4,7.4,0,0,1,2.41,4.91l3.15,44.77a6.45,6.45,0,0,1-1.72,4.92l-7.44,7.87a6.61,6.61,0,0,1-4.85,2Z" style="fill: rgb(255, 255, 255); opacity: 0.2; transform-origin: 197.965px 243.6px;" class="animable" id="elj07sy5n04v"></path></g><path d="M229.78,222.7l2.93,41.7a4.8,4.8,0,0,1-1.28,3.67l-4.21,4.45a5,5,0,0,1-3.62,1.53H177.07a5.72,5.72,0,0,1-3.84-1.53l-4.83-4.45a5.56,5.56,0,0,1-1.8-3.67l-2.93-41.7A4.84,4.84,0,0,1,165,219l4.2-4.45a4.94,4.94,0,0,1,3.63-1.53h46.52a5.7,5.7,0,0,1,3.85,1.53L228,219A5.49,5.49,0,0,1,229.78,222.7Z" style="fill: #77FFC0; transform-origin: 198.191px 243.535px;" id="elpm4aada9e3o" class="animable"></path><path d="M227.7,222.7l2.93,41.7a4.8,4.8,0,0,1-1.28,3.67l-4.21,4.45a5,5,0,0,1-3.62,1.53H177.07a5.72,5.72,0,0,1-3.84-1.53l-4.83-4.45a5.56,5.56,0,0,1-1.8-3.67l-2.93-41.7A4.84,4.84,0,0,1,165,219l4.2-4.45a4.94,4.94,0,0,1,3.63-1.53h44.44a5.7,5.7,0,0,1,3.85,1.53l2.26,2.09L225.9,219A5.54,5.54,0,0,1,227.7,222.7Z" style="fill: rgb(38, 50, 56); transform-origin: 197.151px 243.535px;" id="elklnv0e530r" class="animable"></path><g id="elov0ckrvgh7c"><path d="M201.24,219.38h-14.7a1.4,1.4,0,0,1-1.39-1.28h0a1.18,1.18,0,0,1,1.21-1.28h14.7a1.41,1.41,0,0,1,1.4,1.28h0A1.19,1.19,0,0,1,201.24,219.38Z" style="fill: rgb(255, 255, 255); opacity: 0.4; transform-origin: 193.805px 218.1px;" class="animable" id="el3qkb9g758nd"></path></g><g id="elfmo4bx9nh0p"><path d="M198.31,271.16h-1.56a1.42,1.42,0,0,1-1.4-1.28l-.06-.82a1.19,1.19,0,0,1,1.22-1.28h1.57a1.4,1.4,0,0,1,1.39,1.28l.06.82A1.2,1.2,0,0,1,198.31,271.16Z" style="fill: rgb(255, 255, 255); opacity: 0.4; transform-origin: 197.41px 269.47px;" class="animable" id="elf3yi41gxkd9"></path></g><g id="eleobh79znazc"><path d="M220,223.14H168.3a6.14,6.14,0,0,0-4.46,1.85l.11,1.6a5.11,5.11,0,0,1,4.43-2.43h51.7a6,6,0,0,1,5.92,5.47l2,27.84a5.07,5.07,0,0,1-5.15,5.47H171.1a6,6,0,0,1-4.77-2.43l.11,1.59a7.07,7.07,0,0,0,4.73,1.86h51.71a6,6,0,0,0,6.12-6.49l-2-27.84A7.13,7.13,0,0,0,220,223.14Z" style="fill: rgb(255, 255, 255); opacity: 0.2; transform-origin: 196.43px 243.551px;" class="animable" id="el8syxsbtdd8"></path></g><g id="elweehxu1ki2"><path d="M224.44,229.63l2,27.84a3.64,3.64,0,0,1-3.7,3.93H171a4.3,4.3,0,0,1-4.25-3.93l-2-27.84a3.63,3.63,0,0,1,3.69-3.93h51.71A4.3,4.3,0,0,1,224.44,229.63Z" style="fill: rgb(255, 255, 255); opacity: 0.5; transform-origin: 195.595px 243.55px;" class="animable" id="el8jvnx2etd89"></path></g><polygon points="193.92 234.32 194.1 236.83 193.7 237.25 193.23 236.82 193.06 234.33 193.46 233.9 193.92 234.32" style="fill: rgb(38, 50, 56); transform-origin: 193.58px 235.575px;" id="elsxingw9vw0p" class="animable"></polygon><polygon points="193.67 230.72 193.85 233.22 193.45 233.65 192.98 233.21 192.8 230.73 193.21 230.29 193.67 230.72" style="fill: rgb(38, 50, 56); transform-origin: 193.325px 231.97px;" id="el31fmet4db1x" class="animable"></polygon><polygon points="197.63 234.32 197.81 236.83 197.41 237.25 196.94 236.82 196.76 234.33 197.17 233.9 197.63 234.32" style="fill: rgb(38, 50, 56); transform-origin: 197.285px 235.575px;" id="elfenowg8pjgm" class="animable"></polygon><polygon points="197.38 230.72 197.55 233.22 197.15 233.65 196.68 233.21 196.51 230.73 196.92 230.29 197.38 230.72" style="fill: rgb(38, 50, 56); transform-origin: 197.03px 231.97px;" id="elo2irl0kv65p" class="animable"></polygon><polygon points="196.35 230.56 193.81 230.56 193.35 230.14 193.76 229.71 196.28 229.71 196.75 230.14 196.35 230.56" style="fill: rgb(38, 50, 56); transform-origin: 195.05px 230.135px;" id="elp7ap43m946p" class="animable"></polygon><polygon points="196.6 234.2 194.06 234.2 193.6 233.78 194.01 233.34 196.54 233.34 197 233.78 196.6 234.2" style="fill: rgb(38, 50, 56); transform-origin: 195.3px 233.77px;" id="elk56xyb8a5o" class="animable"></polygon><polygon points="196.86 237.84 194.32 237.84 193.86 237.41 194.27 236.98 196.79 236.98 197.26 237.41 196.86 237.84" style="fill: rgb(38, 50, 56); transform-origin: 195.56px 237.41px;" id="elbkqs93ld0na" class="animable"></polygon><polygon points="170.3 230.72 170.47 233.22 170.07 233.65 169.6 233.21 169.43 230.73 169.84 230.29 170.3 230.72" style="fill: rgb(38, 50, 56); transform-origin: 169.95px 231.97px;" id="el1192mf62jmx" class="animable"></polygon><polygon points="174.26 234.32 174.43 236.83 174.03 237.25 173.56 236.82 173.39 234.33 173.8 233.9 174.26 234.32" style="fill: rgb(38, 50, 56); transform-origin: 173.91px 235.575px;" id="elu9xea2w28s" class="animable"></polygon><polygon points="172.97 230.56 170.43 230.56 169.97 230.14 170.38 229.71 172.91 229.71 173.38 230.14 172.97 230.56" style="fill: rgb(38, 50, 56); transform-origin: 171.675px 230.135px;" id="elj6es9fkf0c" class="animable"></polygon><polygon points="173.23 234.2 170.69 234.2 170.23 233.78 170.64 233.34 173.16 233.34 173.63 233.78 173.23 234.2" style="fill: rgb(38, 50, 56); transform-origin: 171.93px 233.77px;" id="elojsbg0htfas" class="animable"></polygon><polygon points="173.49 237.84 170.94 237.84 170.49 237.41 170.89 236.98 173.42 236.98 173.89 237.41 173.49 237.84" style="fill: rgb(38, 50, 56); transform-origin: 172.19px 237.41px;" id="elal6svp1g95" class="animable"></polygon><polygon points="176.12 234.32 176.29 236.83 175.89 237.25 175.42 236.82 175.25 234.33 175.66 233.9 176.12 234.32" style="fill: rgb(38, 50, 56); transform-origin: 175.77px 235.575px;" id="elivm3ae1k0p7" class="animable"></polygon><polygon points="175.86 230.72 176.04 233.22 175.64 233.65 175.17 233.21 175 230.73 175.4 230.29 175.86 230.72" style="fill: rgb(38, 50, 56); transform-origin: 175.52px 231.97px;" id="elqezrsc5jh4f" class="animable"></polygon><polygon points="179.82 234.32 180 236.83 179.6 237.25 179.13 236.82 178.95 234.33 179.36 233.9 179.82 234.32" style="fill: rgb(38, 50, 56); transform-origin: 179.475px 235.575px;" id="el0y5prz9yhfy8" class="animable"></polygon><polygon points="179.57 230.72 179.74 233.22 179.34 233.65 178.88 233.21 178.7 230.73 179.11 230.29 179.57 230.72" style="fill: rgb(38, 50, 56); transform-origin: 179.22px 231.97px;" id="elmdj1owengoo" class="animable"></polygon><polygon points="178.54 230.56 176 230.56 175.54 230.14 175.95 229.71 178.47 229.71 178.94 230.14 178.54 230.56" style="fill: rgb(38, 50, 56); transform-origin: 177.24px 230.135px;" id="elpq26vwt1cgp" class="animable"></polygon><polygon points="178.8 234.2 176.26 234.2 175.8 233.78 176.2 233.34 178.73 233.34 179.2 233.78 178.8 234.2" style="fill: rgb(38, 50, 56); transform-origin: 177.5px 233.77px;" id="ells80uzkolvm" class="animable"></polygon><polygon points="188.51 234.32 188.69 236.83 188.28 237.25 187.82 236.82 187.64 234.33 188.05 233.9 188.51 234.32" style="fill: rgb(38, 50, 56); transform-origin: 188.165px 235.575px;" id="elnti6jkmrko" class="animable"></polygon><polygon points="188.26 230.72 188.43 233.22 188.03 233.65 187.56 233.21 187.39 230.73 187.8 230.29 188.26 230.72" style="fill: rgb(38, 50, 56); transform-origin: 187.91px 231.97px;" id="elw14ubyj51rf" class="animable"></polygon><polygon points="187.23 230.56 184.69 230.56 184.23 230.14 184.63 229.71 187.16 229.71 187.63 230.14 187.23 230.56" style="fill: rgb(38, 50, 56); transform-origin: 185.93px 230.135px;" id="elrv38jz18k5b" class="animable"></polygon><polygon points="187.48 234.2 184.94 234.2 184.48 233.78 184.89 233.34 187.41 233.34 187.88 233.78 187.48 234.2" style="fill: rgb(38, 50, 56); transform-origin: 186.18px 233.77px;" id="el6fe78q50z3o" class="animable"></polygon><polygon points="187.74 237.84 185.2 237.84 184.74 237.41 185.15 236.98 187.67 236.98 188.14 237.41 187.74 237.84" style="fill: rgb(38, 50, 56); transform-origin: 186.44px 237.41px;" id="elpzkutt4chmk" class="animable"></polygon><polygon points="191.39 234.54 190.31 234.54 190.26 233.86 191.34 233.86 191.39 234.54" style="fill: rgb(38, 50, 56); transform-origin: 190.825px 234.2px;" id="elq0lqp14850b" class="animable"></polygon><polygon points="176.96 252.8 177.19 256.07 176.66 256.63 176.05 256.06 175.82 252.81 176.35 252.25 176.96 252.8" style="fill: rgb(38, 50, 56); transform-origin: 176.505px 254.44px;" id="elbo7q3r5d1" class="animable"></polygon><polygon points="176.62 248.09 176.85 251.36 176.33 251.92 175.72 251.35 175.49 248.1 176.02 247.54 176.62 248.09" style="fill: rgb(38, 50, 56); transform-origin: 176.17px 249.73px;" id="elipf81qb7dua" class="animable"></polygon><polygon points="175.28 247.89 171.96 247.89 171.36 247.34 171.9 246.77 175.19 246.77 175.8 247.34 175.28 247.89" style="fill: rgb(38, 50, 56); transform-origin: 173.58px 247.33px;" id="elyjweo73jog" class="animable"></polygon><polygon points="183.22 248.09 183.44 251.36 182.92 251.92 182.31 251.35 182.08 248.1 182.62 247.54 183.22 248.09" style="fill: rgb(38, 50, 56); transform-origin: 182.76px 249.73px;" id="elbl53dhpnb1l" class="animable"></polygon><polygon points="188.39 252.8 188.62 256.07 188.09 256.63 187.48 256.06 187.25 252.81 187.79 252.25 188.39 252.8" style="fill: rgb(38, 50, 56); transform-origin: 187.935px 254.44px;" id="else637wu4v1" class="animable"></polygon><polygon points="188.06 248.09 188.29 251.36 187.76 251.92 187.15 251.35 186.93 248.1 187.46 247.54 188.06 248.09" style="fill: rgb(38, 50, 56); transform-origin: 187.61px 249.73px;" id="elfea3stt3fud" class="animable"></polygon><polygon points="187.05 252.64 183.73 252.64 183.13 252.09 183.66 251.53 186.96 251.53 187.57 252.09 187.05 252.64" style="fill: rgb(38, 50, 56); transform-origin: 185.35px 252.085px;" id="el52r1162fu3" class="animable"></polygon><polygon points="190.82 252.8 191.05 256.07 190.52 256.63 189.91 256.06 189.68 252.81 190.22 252.25 190.82 252.8" style="fill: rgb(38, 50, 56); transform-origin: 190.365px 254.44px;" id="elruj5qpe3bs" class="animable"></polygon><polygon points="190.49 248.09 190.72 251.36 190.19 251.92 189.58 251.35 189.35 248.1 189.89 247.54 190.49 248.09" style="fill: rgb(38, 50, 56); transform-origin: 190.035px 249.73px;" id="elxz3xgvcn9" class="animable"></polygon><polygon points="195.66 252.8 195.89 256.07 195.37 256.63 194.75 256.06 194.53 252.81 195.06 252.25 195.66 252.8" style="fill: rgb(38, 50, 56); transform-origin: 195.21px 254.44px;" id="el44hla7eqia8" class="animable"></polygon><polygon points="195.33 248.09 195.56 251.36 195.04 251.92 194.42 251.35 194.2 248.1 194.73 247.54 195.33 248.09" style="fill: rgb(38, 50, 56); transform-origin: 194.88px 249.73px;" id="elde5pxc0abkv" class="animable"></polygon><polygon points="193.99 247.89 190.67 247.89 190.07 247.34 190.6 246.77 193.9 246.77 194.51 247.34 193.99 247.89" style="fill: rgb(38, 50, 56); transform-origin: 192.29px 247.33px;" id="elo7hcgeuzwwm" class="animable"></polygon><polygon points="194.32 252.64 191 252.64 190.4 252.09 190.93 251.53 194.23 251.53 194.84 252.09 194.32 252.64" style="fill: rgb(38, 50, 56); transform-origin: 192.62px 252.085px;" id="elq55udre9sl" class="animable"></polygon><polygon points="194.65 257.39 191.34 257.39 190.73 256.84 191.27 256.28 194.56 256.28 195.18 256.84 194.65 257.39" style="fill: rgb(38, 50, 56); transform-origin: 192.955px 256.835px;" id="elehw1jugz7wo" class="animable"></polygon><polygon points="198.64 254.54 198.78 256.57 198.46 256.92 198.08 256.57 197.94 254.55 198.27 254.2 198.64 254.54" style="fill: rgb(38, 50, 56); transform-origin: 198.36px 255.56px;" id="elv8iw5f2r4z" class="animable"></polygon><polygon points="198.44 251.62 198.58 253.65 198.26 254 197.88 253.65 197.73 251.63 198.06 251.28 198.44 251.62" style="fill: rgb(38, 50, 56); transform-origin: 198.155px 252.64px;" id="elr6c60tbya0m" class="animable"></polygon><polygon points="201.65 254.54 201.79 256.57 201.47 256.92 201.09 256.57 200.94 254.55 201.28 254.2 201.65 254.54" style="fill: rgb(38, 50, 56); transform-origin: 201.365px 255.56px;" id="elvdaa63t8itl" class="animable"></polygon><polygon points="201.44 251.62 201.59 253.65 201.26 254 200.88 253.65 200.74 251.63 201.07 251.28 201.44 251.62" style="fill: rgb(38, 50, 56); transform-origin: 201.165px 252.64px;" id="elerd6t0krljf" class="animable"></polygon><polygon points="200.61 251.49 198.55 251.49 198.18 251.15 198.51 250.8 200.56 250.8 200.93 251.15 200.61 251.49" style="fill: rgb(38, 50, 56); transform-origin: 199.555px 251.145px;" id="el8ijw7egflca" class="animable"></polygon><polygon points="201.02 257.39 198.96 257.39 198.59 257.05 198.92 256.7 200.97 256.7 201.35 257.05 201.02 257.39" style="fill: rgb(38, 50, 56); transform-origin: 199.97px 257.045px;" id="el7cilxdhjajo" class="animable"></polygon><polygon points="203.16 254.54 203.3 256.57 202.97 256.92 202.59 256.57 202.45 254.55 202.78 254.2 203.16 254.54" style="fill: rgb(38, 50, 56); transform-origin: 202.875px 255.56px;" id="elpp47th4z02" class="animable"></polygon><polygon points="202.95 251.62 203.09 253.65 202.77 254 202.39 253.65 202.25 251.63 202.58 251.28 202.95 251.62" style="fill: rgb(38, 50, 56); transform-origin: 202.67px 252.64px;" id="elc9iixw5ig9g" class="animable"></polygon><polygon points="206.16 254.54 206.31 256.57 205.98 256.92 205.6 256.57 205.46 254.55 205.79 254.2 206.16 254.54" style="fill: rgb(38, 50, 56); transform-origin: 205.885px 255.56px;" id="elquwhf8fggrm" class="animable"></polygon><polygon points="205.12 251.49 203.06 251.49 202.69 251.15 203.02 250.8 205.07 250.8 205.45 251.15 205.12 251.49" style="fill: rgb(38, 50, 56); transform-origin: 204.07px 251.145px;" id="elnol5pb1yyf" class="animable"></polygon><polygon points="205.33 254.44 203.27 254.44 202.9 254.1 203.23 253.75 205.28 253.75 205.66 254.1 205.33 254.44" style="fill: rgb(38, 50, 56); transform-origin: 204.28px 254.095px;" id="elxkv2f8pb92h" class="animable"></polygon><polygon points="205.54 257.39 203.48 257.39 203.1 257.05 203.44 256.7 205.48 256.7 205.86 257.05 205.54 257.39" style="fill: rgb(38, 50, 56); transform-origin: 204.48px 257.045px;" id="el57llp4wtczw" class="animable"></polygon><polygon points="179.8 250.08 179.12 250.08 179.07 249.4 179.76 249.4 179.8 250.08" style="fill: rgb(38, 50, 56); transform-origin: 179.435px 249.74px;" id="elkdoj43zfz4c" class="animable"></polygon><polygon points="180.09 254.18 179.41 254.18 179.36 253.5 180.04 253.5 180.09 254.18" style="fill: rgb(38, 50, 56); transform-origin: 179.725px 253.84px;" id="ell4euy0mmbui" class="animable"></polygon><path d="M220.44,240a9.72,9.72,0,0,0-9.53-8.33,8.2,8.2,0,0,0-8.36,8.33h-37l.07,1h37a9.75,9.75,0,0,0,9.53,8.33,8.2,8.2,0,0,0,8.37-8.33h4.72l-.07-1Zm-8.36,8.34a8.6,8.6,0,0,1-8.48-7.83,7.26,7.26,0,0,1,7.38-7.82,8.6,8.6,0,0,1,8.49,7.82A7.26,7.26,0,0,1,212.08,248.3Z" style="fill: rgb(38, 50, 56); transform-origin: 195.395px 240.5px;" id="el7wk4li2t24" class="animable"></path><path d="M210.47,240.13a1.08,1.08,0,0,0,.55,1.4,1,1,0,0,0,1.39-.44l2.54-5.52-4.29,4.29A1.09,1.09,0,0,0,210.47,240.13Z" style="fill: rgb(38, 50, 56); transform-origin: 212.668px 238.614px;" id="elu34sccm4whm" class="animable"></path><g id="ele30qu184qrn"><path d="M227.22,220.82l-.87-.8-.75-.67-1.06-1a5.72,5.72,0,0,0-3.84-1.53H176.25a5,5,0,0,0-3.62,1.53l-4.21,4.45a4.89,4.89,0,0,0-1.29,3.67l2.93,41.7a5.35,5.35,0,0,0,.5,1.88l-2.16-2a6,6,0,0,1-1.1-1.37,5.55,5.55,0,0,1-.7-2.3l-2.93-41.7A4.84,4.84,0,0,1,165,219l4.2-4.45a4.94,4.94,0,0,1,3.63-1.53h44.44a5.7,5.7,0,0,1,3.85,1.53l1.06,1,.74.68,3,2.79A5.73,5.73,0,0,1,227.22,220.82Z" style="opacity: 0.2; transform-origin: 195.439px 241.535px;" class="animable" id="ellqvev71ebs8"></path></g><g id="el4cc423lg7nc"><path d="M205.53,213.05l-39.06,49.46-2.8-39.81A4.84,4.84,0,0,1,165,219l4.2-4.45a4.94,4.94,0,0,1,3.63-1.53Z" style="fill: rgb(255, 255, 255); opacity: 0.2; transform-origin: 184.594px 237.765px;" class="animable" id="el5if0bz3tbi5"></path></g><g id="elxn4d8wwx6ts"><path d="M216.14,213.05l-45.26,57.31-2.48-2.29a6,6,0,0,1-1.1-1.37l42.36-53.65Z" style="fill: rgb(255, 255, 255); opacity: 0.2; transform-origin: 191.72px 241.705px;" class="animable" id="elfeqkn064v0k"></path></g><g id="el8w0fqdb1f3x"><polygon points="224.08 217.35 179.3 274.05 178.05 274.05 223.34 216.67 224.08 217.35" style="fill: rgb(255, 255, 255); opacity: 0.2; transform-origin: 201.065px 245.36px;" class="animable" id="elx3xpm3f9xl"></polygon></g><path d="M152,227.66c-.6,0-2.53.23-3.12.23-1.33,0-2.28,1.83-2.12,4.08s1.36,4.08,2.69,4.08c.6,0,2.52-.23,3.12-.23,1.33,0,2.27-1.83,2.11-4.08S153.35,227.66,152,227.66Z" style="fill: rgb(38, 50, 56); transform-origin: 150.72px 231.855px;" id="eljmlcio4r5ke" class="animable"></path><g id="el140y8x7ast7"><path d="M152,227.66c-.6,0-2.53.23-3.12.23-1.33,0-2.28,1.83-2.12,4.08s1.36,4.08,2.69,4.08c.6,0,2.52-.23,3.12-.23,1.33,0,2.27-1.83,2.11-4.08S153.35,227.66,152,227.66Z" style="fill: rgb(255, 255, 255); opacity: 0.2; transform-origin: 150.72px 231.855px;" class="animable" id="el7h6it62c0g4"></path></g><g id="el39idaf2dgpo"><path d="M151.59,232c.16,2.25-.79,4.08-2.11,4.08s-2.53-1.83-2.69-4.08.79-4.08,2.12-4.08S151.43,229.72,151.59,232Z" style="fill: rgb(255, 255, 255); opacity: 0.2; transform-origin: 149.19px 232px;" class="animable" id="el7ccweijlx7c"></path></g><path d="M153.69,251.36c-.6,0-2.53.23-3.13.23-1.32,0-2.27,1.83-2.11,4.08s1.36,4.08,2.69,4.08c.6,0,2.52-.23,3.12-.23,1.32,0,2.27-1.82,2.11-4.08S155,251.36,153.69,251.36Z" style="fill: rgb(38, 50, 56); transform-origin: 152.41px 255.555px;" id="eluamm5p2d61" class="animable"></path><g id="elblbk4h3ssxv"><path d="M153.69,251.36c-.6,0-2.53.23-3.13.23-1.32,0-2.27,1.83-2.11,4.08s1.36,4.08,2.69,4.08c.6,0,2.52-.23,3.12-.23,1.32,0,2.27-1.82,2.11-4.08S155,251.36,153.69,251.36Z" style="fill: rgb(255, 255, 255); opacity: 0.2; transform-origin: 152.41px 255.555px;" class="animable" id="eld5bty7ejjd9"></path></g><g id="elq62k3nb05g"><path d="M153.25,255.67c.16,2.26-.79,4.08-2.11,4.08s-2.53-1.82-2.69-4.08.79-4.08,2.11-4.08S153.09,253.42,153.25,255.67Z" style="fill: rgb(255, 255, 255); opacity: 0.2; transform-origin: 150.85px 255.67px;" class="animable" id="elh1tm1yyk6ji"></path></g><path d="M229.91,279.55l-4.27,14.09a2.11,2.11,0,0,1-2,1.49h-6.31l-.65-5.09a1.72,1.72,0,0,0-1.69-1.47H178.53a1.47,1.47,0,0,0-1.48,1.26l-.56,4.15a1.33,1.33,0,0,1-1.32,1.15h-4.9a2.5,2.5,0,0,1-2.36-1.78l-4.41-14.9a.28.28,0,0,1,.27-.36h3.63a1,1,0,0,1,.34.06h0a1.5,1.5,0,0,1,.32.19c.33.25.67.5,1,.73l.41.26.89.5.49.24.59.25a4.53,4.53,0,0,0,.57.23c.39.14.78.27,1.17.37l.34.09.37.08.58.12a14.49,14.49,0,0,0,2.37.2h48.38A6.55,6.55,0,0,0,229.91,279.55Z" style="fill: #77FFC0; transform-origin: 196.699px 286.61px;" id="elb3ad6i81td6" class="animable"></path><g id="elj36yzaynb0b"><path d="M229.91,279.55l-4.27,14.09a2.11,2.11,0,0,1-2,1.49h-4.46l.08-4.85a1.71,1.71,0,0,0-1.7-1.71h-39a1.47,1.47,0,0,0-1.48,1.26l-.56,4.15a1.33,1.33,0,0,1-1.32,1.15H172.4A2.47,2.47,0,0,1,170,293l-2.21-14.89a1.5,1.5,0,0,1,.32.19c.33.25.67.5,1,.73l.41.26.89.5.49.24.59.25c.19.09.38.16.57.23.39.14.78.27,1.17.37l.34.09.37.08.58.12a14.49,14.49,0,0,0,2.37.2h48.38A6.55,6.55,0,0,0,229.91,279.55Z" style="fill: rgb(255, 255, 255); opacity: 0.2; transform-origin: 198.85px 286.62px;" class="animable" id="eljm1860d1c3"></path></g><path d="M224.86,207.55l-6.26-14.09a2.51,2.51,0,0,0-2.25-1.49H210l.06,5.09a1.45,1.45,0,0,1-1.48,1.47H172.2a1.73,1.73,0,0,1-1.64-1.26l-1.11-4a1.79,1.79,0,0,0-1.72-1.31H163a2.11,2.11,0,0,0-2.12,1.77l-2.31,15.95a.32.32,0,0,0,.32.36l3.63-1a1.06,1.06,0,0,0,.34-.06h0a1.17,1.17,0,0,0,.3-.19c.29-.25.6-.5.91-.73l.38-.26c.27-.18.54-.34.82-.5a4.76,4.76,0,0,1,.45-.24l.55-.26c.18-.08.37-.16.55-.22a10.49,10.49,0,0,1,1.12-.37l.32-.09.36-.08.57-.12a13.83,13.83,0,0,1,2.33-.2h48.38A7.55,7.55,0,0,1,224.86,207.55Z" style="fill: #77FFC0; transform-origin: 191.714px 201px;" id="elx2rv0jakio" class="animable"></path><g id="elsfw26hhkdef"><path d="M224.86,207.55l-6.26-14.09a2.51,2.51,0,0,0-2.25-1.49h-4.47l.77,4.85a1.44,1.44,0,0,1-1.46,1.71h-39a1.73,1.73,0,0,1-1.64-1.26l-1.11-4a1.79,1.79,0,0,0-1.72-1.31h-2.57a2.09,2.09,0,0,0-2.14,2.09L162.9,209a1.17,1.17,0,0,0,.3-.19c.29-.25.6-.5.91-.73l.38-.26c.27-.18.54-.34.82-.5l.45-.24.55-.26.55-.22a10.49,10.49,0,0,1,1.12-.37l.32-.09.36-.08.57-.12a13.83,13.83,0,0,1,2.33-.2h48.38A7.55,7.55,0,0,1,224.86,207.55Z" style="fill: rgb(255, 255, 255); opacity: 0.2; transform-origin: 193.88px 200.48px;" class="animable" id="el9rty84rw1u"></path></g><path d="M211.19,192.94l.67,4.37a1.06,1.06,0,0,1-1.05,1.22h-8.35v-9.75h10.75V192H212A.85.85,0,0,0,211.19,192.94Z" style="fill: rgb(38, 50, 56); transform-origin: 207.835px 193.655px;" id="eliuab76eh97" class="animable"></path><path d="M220.93,295.13h-1.57a1,1,0,0,1-1-1.06l.12-3.83a1.69,1.69,0,0,0-1.68-1.73h-3.72v13.07L220,300Z" style="fill: rgb(38, 50, 56); transform-origin: 217.005px 295.045px;" id="elor9arzjch2s" class="animable"></path></g><g id="freepik--Hourglass--inject-32" class="animable" style="transform-origin: 395.11px 377.785px;"><path d="M405.23,388.05c-4.24-3.09-6.07-6.85-6.41-10.26.34-3.42,2.17-7.18,6.41-10.26C415.41,360.11,416.1,347,416.1,347L396,346.41v-.05l-.87,0-.86,0v.05l-20.13.55s.69,13.15,10.88,20.57c4.23,3.08,6.07,6.84,6.4,10.26-.33,3.41-2.17,7.17-6.4,10.26-10.19,7.41-10.88,20.57-10.88,20.57l20.13.54v0l.86,0,.87,0v0l20.12-.54S415.41,395.46,405.23,388.05Z" style="fill: #77FFC0; transform-origin: 395.13px 377.76px;" id="elq6qtckoj75r" class="animable"></path><g id="eluegzzgsrg5"><path d="M405.23,388.05c-4.24-3.09-6.07-6.85-6.41-10.26.34-3.42,2.17-7.18,6.41-10.26C415.41,360.11,416.1,347,416.1,347L396,346.41v-.05l-.87,0-.86,0v.05l-20.13.55s.69,13.15,10.88,20.57c4.23,3.08,6.07,6.84,6.4,10.26-.33,3.41-2.17,7.17-6.4,10.26-10.19,7.41-10.88,20.57-10.88,20.57l20.13.54v0l.86,0,.87,0v0l20.12-.54S415.41,395.46,405.23,388.05Z" style="fill: rgb(255, 255, 255); opacity: 0.6; transform-origin: 395.13px 377.76px;" class="animable" id="elx7gm9lw9ecr"></path></g><polygon points="418.36 415.06 371.87 415.06 373.65 409.2 416.58 409.2 418.36 415.06" style="fill: #77FFC0; transform-origin: 395.115px 412.13px;" id="elkozmczen7zh" class="animable"></polygon><g id="elnk4apdpmu4j"><polygon points="418.36 415.06 371.87 415.06 373.65 409.2 416.58 409.2 418.36 415.06" style="fill: rgb(255, 255, 255); opacity: 0.2; transform-origin: 395.115px 412.13px;" class="animable" id="ele1ojq7gav1e"></polygon></g><path d="M418.32,413.24H371.91a1.83,1.83,0,0,0-1.83,1.82h0a1.83,1.83,0,0,0,1.83,1.82h46.41a1.83,1.83,0,0,0,1.82-1.82h0A1.83,1.83,0,0,0,418.32,413.24Z" style="fill: #77FFC0; transform-origin: 395.11px 415.06px;" id="el9yrjpfvlsgv" class="animable"></path><path d="M374.09,410.58h42.05a1.43,1.43,0,0,0,1.44-1.44h0a1.43,1.43,0,0,0-1.44-1.44H374.09a1.44,1.44,0,0,0-1.45,1.44h0A1.44,1.44,0,0,0,374.09,410.58Z" style="fill: #77FFC0; transform-origin: 395.11px 409.14px;" id="elgvbugucgnmw" class="animable"></path><polygon points="371.87 340.51 418.36 340.51 416.58 346.37 373.65 346.37 371.87 340.51" style="fill: #77FFC0; transform-origin: 395.115px 343.44px;" id="el85c6sdjodsl" class="animable"></polygon><g id="eltu7obtnnbu"><polygon points="371.87 340.51 418.36 340.51 416.58 346.37 373.65 346.37 371.87 340.51" style="fill: rgb(255, 255, 255); opacity: 0.2; transform-origin: 395.115px 343.44px;" class="animable" id="elbk6rxe36dir"></polygon></g><path d="M371.91,342.33h46.41a1.82,1.82,0,0,0,1.82-1.82h0a1.83,1.83,0,0,0-1.82-1.82H371.91a1.83,1.83,0,0,0-1.83,1.82h0A1.82,1.82,0,0,0,371.91,342.33Z" style="fill: #77FFC0; transform-origin: 395.11px 340.51px;" id="elduyrnx3cebu" class="animable"></path><path d="M416.14,345H374.09a1.45,1.45,0,0,0-1.45,1.44h0a1.45,1.45,0,0,0,1.45,1.45h42.05a1.44,1.44,0,0,0,1.44-1.45h0A1.44,1.44,0,0,0,416.14,345Z" style="fill: #77FFC0; transform-origin: 395.11px 346.445px;" id="el89y30yxknq4" class="animable"></path><g id="elz15y7gf92ee"><path d="M412.4,402.18c-1.29-1.09-5.94-2.07-8.91-3.43-2.25-1-4.79-2.56-7-3.28a1.47,1.47,0,0,0-1.24-1.3V374.29a6.37,6.37,0,0,1,.56-2.42c3.58-.53,7.64-5.39,7.64-5.39a48.4,48.4,0,0,0-5.63-1.57c-1.19-.09-4.65,1.37-6.43.28s-4.45,1.29-4.45,1.29,3.41,4.07,6.73,5.16c.64,4.67.49,22.33.49,22.33s-1.19.19-.79,1.24h0c-2.89.65-7.88,3.39-11.48,4.5-4.15,1.29-5.73,6.43-5.73,6.43h38.17S413.68,403.27,412.4,402.18Z" style="opacity: 0.4; transform-origin: 395.245px 385.522px;" class="animable" id="elktrm32jz7t"></path></g></g><g id="freepik--Character--inject-32" class="animable animator-active" style="transform-origin: 307.355px 277.237px;"><path d="M344,191.28s9.9,3.59,8.18,8.61-13.57-1.76-13.57-1.76Z" style="fill: rgb(235, 179, 118); transform-origin: 345.495px 196.511px;" id="elyd8qr8erku" class="animable"></path><g id="elao5x76bhku"><path d="M344,191.28s9.9,3.59,8.18,8.61-13.57-1.76-13.57-1.76Z" style="isolation: isolate; opacity: 0.2; transform-origin: 345.495px 196.511px;" class="animable" id="el4p2b3u28hcd"></path></g><path d="M326.86,180.26c5.5,1.17,19.5,10.7,19.5,10.7l-4.74,11.35-12.68-4.18Z" style="fill: #77FFC0; transform-origin: 336.61px 191.285px;" id="elge6v99fkwmp" class="animable"></path><g id="elbdomxn1yqcb"><path d="M346.36,191l-4.75,11.34-3.67-1.2-9-3-1.13-9.74-.95-8.12C332.36,181.43,346.36,191,346.36,191Z" style="fill: rgb(255, 255, 255); opacity: 0.6; transform-origin: 336.61px 191.31px;" class="animable" id="el9ssuhk7fgu9"></path></g><polygon points="346.26 190.56 341.09 202.42 342.41 202.73 347.17 191.22 346.26 190.56" style="fill: #77FFC0; transform-origin: 344.13px 196.645px;" id="elux459s8ty4q" class="animable"></polygon><g id="el18r44bk9jhm"><polygon points="346.26 190.56 341.09 202.42 342.41 202.73 347.17 191.22 346.26 190.56" style="fill: rgb(255, 255, 255); opacity: 0.7; transform-origin: 344.13px 196.645px;" class="animable" id="elipbjdz1fhna"></polygon></g><g id="el193eacksokp"><path d="M337.94,201.1l-9-3-1.13-9.74C331.26,189.82,338,193.56,337.94,201.1Z" style="isolation: isolate; opacity: 0.2; transform-origin: 332.875px 194.73px;" class="animable" id="eluuuls6pwt7p"></path></g><path d="M311.46,178.29l-15,1.14v7.26H318l2.39-4.74A7.74,7.74,0,0,0,311.46,178.29Z" style="fill: #77FFC0; transform-origin: 308.425px 182.335px;" id="elhv4idgjqx1u" class="animable"></path><g id="elcqc4lkyq1wq"><path d="M311.46,178.29l-15,1.14v7.26H318l2.39-4.74A7.74,7.74,0,0,0,311.46,178.29Z" style="fill: rgb(255, 255, 255); opacity: 0.7; transform-origin: 308.425px 182.335px;" class="animable" id="elknhtjptlmgt"></path></g><polygon points="305.4 400.1 312.27 404.05 320.49 389.13 313.63 385.18 305.4 400.1" style="fill: rgb(238, 193, 187); transform-origin: 312.945px 394.615px;" id="el5whbssgck83" class="animable"></polygon><path d="M313.1,403.17l-7.63-4.85a.64.64,0,0,0-.82.07l-4.6,4.78a1.14,1.14,0,0,0,.13,1.61,1.33,1.33,0,0,0,.19.14c2.66,1.63,4.1,2.36,7.42,4.47,2,1.29,10.68,5.94,13.87,6.16s3.55-2.79,2.25-3.28c-6.56-2.44-9.11-5.57-10-8A2.09,2.09,0,0,0,313.1,403.17Z" style="fill: rgb(38, 50, 56); transform-origin: 312.196px 406.882px;" id="el2ajdq55uuv4" class="animable"></path><g id="el8qvnvh0dnpd"><polygon points="313.63 385.18 320.49 389.13 316.24 396.82 309.38 392.87 313.63 385.18" style="isolation: isolate; opacity: 0.2; transform-origin: 314.935px 391px;" class="animable" id="eljr4o8e66u5"></polygon></g><path d="M332.78,225s22.46,74.44,21.23,96.56c-1.35,24.26-34,75.29-34,75.29l-12.3-7.76s23-50.28,23.9-68.9c-1.27-26.93-29.27-92.35-29.27-92.35Z" style="fill: #77FFC0; transform-origin: 328.199px 310.925px;" id="elmlb8jwrzvse" class="animable"></path><g id="el277laqhpm27"><path d="M315,251.17c6.8,4.16,9.48,21.88,8.05,30.87-3.67-11.39-7.86-22.62-11.22-31.22A3.17,3.17,0,0,1,315,251.17Z" style="isolation: isolate; opacity: 0.2; transform-origin: 317.627px 266.294px;" class="animable" id="elh6poo3ulg4"></path></g><polygon points="321.41 398.06 306.92 388.88 309.3 384.79 324.49 394.06 321.41 398.06" style="fill: #77FFC0; transform-origin: 315.705px 391.425px;" id="elggekaz51qr5" class="animable"></polygon><path d="M313.07,404.33a.17.17,0,0,1-.05-.2.15.15,0,0,1,.16-.1c.33,0,3.22.14,3.76,1a.57.57,0,0,1,0,.59,1,1,0,0,1-.78.59,2.57,2.57,0,0,1-1.49-.5A9.78,9.78,0,0,1,313.07,404.33Zm.57.09a4.1,4.1,0,0,0,2.45,1.4.62.62,0,0,0,.53-.41.2.2,0,0,0,0-.23.77.77,0,0,0-.18-.18A7.92,7.92,0,0,0,313.64,404.42Z" style="fill: #77FFC0; transform-origin: 315.014px 405.119px;" id="el7krgrmclny" class="animable"></path><path d="M313,404.29a.15.15,0,0,1,0-.18c.05-.11,1.27-1.83,2.41-1.94a1.08,1.08,0,0,1,.79.24.63.63,0,0,1,.28.71c-.28.8-2.43,1.34-3.33,1.25h-.09A.12.12,0,0,1,313,404.29Zm2.91-1.63a.68.68,0,0,0-.44-.1c-.72.07-1.56,1-1.94,1.48,1-.06,2.44-.56,2.6-1,0,0,.05-.14-.15-.3l-.07,0Z" style="fill: #77FFC0; transform-origin: 314.737px 403.272px;" id="el500h7htdouk" class="animable"></path><polygon points="290.45 409.08 298.08 409.08 298.71 391.41 291.07 391.41 290.45 409.08" style="fill: rgb(238, 193, 187); transform-origin: 294.58px 400.245px;" id="eleyg2cxk5dh" class="animable"></polygon><path d="M299.14,408.2h-9.27a.66.66,0,0,0-.65.52l-1.5,6.79a1.13,1.13,0,0,0,.86,1.34l.25,0c3-.05,5.18-.23,8.95-.23,2.32,0,9.31.24,12.52.24s3.62-3.16,2.31-3.45c-5.88-1.29-10.31-3.06-12.19-4.75A1.84,1.84,0,0,0,299.14,408.2Z" style="fill: rgb(38, 50, 56); transform-origin: 300.501px 412.529px;" id="el289gz6xaihf" class="animable"></path><g id="eli6h48seccx8"><polygon points="291.07 391.42 298.71 391.42 298.38 400.53 290.74 400.53 291.07 391.42" style="isolation: isolate; opacity: 0.2; transform-origin: 294.725px 395.975px;" class="animable" id="elo4r0r0wl7pe"></polygon></g><path d="M322.37,226.53s-6.2,72.93-9.43,95c-3.52,24.26-11.06,77.18-11.06,77.18H287.93s2.85-50.65,4.17-74.49c1.52-27.17,2.24-95.44,2.24-95.44Z" style="fill: #77FFC0; transform-origin: 305.15px 312.62px;" id="elck9s2epxag" class="animable"></path><polygon points="303.56 399.06 287.11 399.06 287.11 394.14 304.18 393.82 303.56 399.06" style="fill: #77FFC0; transform-origin: 295.645px 396.44px;" id="eld4yl1lh5yzb" class="animable"></polygon><path d="M299.66,409.25a.17.17,0,0,1-.13-.15.17.17,0,0,1,.08-.18c.27-.17,2.74-1.69,3.58-1.25a.53.53,0,0,1,.31.51,1.09,1.09,0,0,1-.37,1,2.25,2.25,0,0,1-1.47.38A9.09,9.09,0,0,1,299.66,409.25Zm.53-.25a3.68,3.68,0,0,0,2.71-.14.72.72,0,0,0,.24-.65c0-.14-.06-.21-.11-.21a.46.46,0,0,0-.23-.05A7.43,7.43,0,0,0,300.19,409Z" style="fill: #77FFC0; transform-origin: 301.52px 408.58px;" id="elcjpd3sf0vmh" class="animable"></path><path d="M299.61,409.29a.17.17,0,0,1-.08-.16c0-.11.19-2.3,1.07-3a.94.94,0,0,1,.77-.23.58.58,0,0,1,.58.47c.16.81-1.37,2.49-2.15,2.91h-.09A.17.17,0,0,1,299.61,409.29Zm1.23-3a4.27,4.27,0,0,0-.91,2.39c.79-.59,1.76-1.86,1.66-2.36,0-.05,0-.18-.26-.18h-.09A.59.59,0,0,0,300.84,406.32Z" style="fill: #77FFC0; transform-origin: 300.745px 407.591px;" id="eluwanngxvpon" class="animable"></path><path d="M335,233l-41.57,2.75c-2.28-20.16-8.91-40.89-10.88-48.21A2,2,0,0,1,284,185c2.06-.6,4.18-1.13,6.34-1.61a200.61,200.61,0,0,1,29.48-4,17.84,17.84,0,0,1,7.09.77C333.1,197.94,334.57,219.54,335,233Z" style="fill: rgb(38, 50, 56); transform-origin: 308.73px 207.531px;" id="elq7pahbotxk" class="animable"></path><g id="elj48ulwdaoy"><path d="M284.24,193.34c1,3.45,2.21,7.77,3.45,12.64,4.55-6.41.49-15.71.49-15.71A9.05,9.05,0,0,0,284.24,193.34Z" style="isolation: isolate; opacity: 0.2; transform-origin: 287.044px 198.125px;" class="animable" id="elqln7au2hxbd"></path></g><g id="elyd0eqd0ogyg"><polygon points="304.92 195.66 321.13 193.81 315.77 210.81 304.92 195.66" style="fill: rgb(255, 255, 255); opacity: 0.6; transform-origin: 313.025px 202.31px;" class="animable" id="ela5g49bzh9sw"></polygon></g><polygon points="306.79 207.41 306.23 201.23 321.72 198.15 322.63 202.78 306.79 207.41" style="fill: rgb(38, 50, 56); transform-origin: 314.43px 202.78px;" id="elgil4qa43un" class="animable"></polygon><g id="el8u4gre6ay4u"><polygon points="306.79 207.41 306.23 201.23 321.72 198.15 322.63 202.78 306.79 207.41" style="fill: rgb(255, 255, 255); opacity: 0.2; transform-origin: 314.43px 202.78px;" class="animable" id="el53hus90qrt8"></polygon></g><path d="M297.76,182.15c3.57,3.25,12.31,2,12.31,2s5.47-1.49,4.32-3.2c-3.22-.52-4.78-2-5.42-4a9.62,9.62,0,0,1-.33-3.67c0-.31.06-.61.1-.9s.11-.77.18-1.15l-10.81-8c.39,1.46.8,3.26,1.13,5.19.76,4.54,1,9.76-.83,12.76A5.36,5.36,0,0,1,297.76,182.15Z" style="fill: rgb(235, 179, 118); transform-origin: 306.154px 173.808px;" id="elravessxx0u9" class="animable"></path><g id="elfcfltkz5yz"><path d="M298.41,181.26a10.66,10.66,0,0,0,10.33-8.79c.14-.7.18-1.15.18-1.15a37.46,37.46,0,0,0-9.68-2.82C300,173,300.24,178.26,298.41,181.26Z" style="isolation: isolate; opacity: 0.2; transform-origin: 303.665px 174.88px;" class="animable" id="el9fsebd6yvob"></path></g><path d="M294.71,145.84s-5,9.27-1.15,14.91S304,148.14,304,148.14Z" style="fill: rgb(38, 50, 56); transform-origin: 298.052px 153.836px;" id="elj155xb3ogub" class="animable"></path><path d="M290.28,166a9.91,9.91,0,0,0,.13,1.11,10.55,10.55,0,0,0,4,6.64,9.72,9.72,0,0,0,6.7,2,9.56,9.56,0,0,0,4.76-1.79c4.4-3.11,5.08-7.47,6.81-14.75a10.13,10.13,0,0,0,.08-4.77,10.24,10.24,0,0,0-12.2-7.79C292.82,148.32,289.87,159.09,290.28,166Z" style="fill: rgb(235, 179, 118); transform-origin: 301.625px 161.095px;" id="el64knkj60r3w" class="animable"></path><path d="M301.13,159.3c-.06.6-.51,1-.9.95s-.63-.61-.52-1.21.51-1,.9-1S301.23,158.69,301.13,159.3Z" style="fill: rgb(38, 50, 56); transform-origin: 300.418px 159.147px;" id="el27bfo2ezmvaj" class="animable"></path><path d="M294.34,158.09c-.06.61-.51,1-.9,1s-.62-.62-.52-1.21.51-1,.9-1S294.44,157.52,294.34,158.09Z" style="fill: rgb(38, 50, 56); transform-origin: 293.63px 157.985px;" id="elh3g1vyr3yo7" class="animable"></path><path d="M296.45,158.77a21.58,21.58,0,0,1-3.78,4.63,3.54,3.54,0,0,0,2.79,1Z" style="fill: rgb(213, 135, 69); transform-origin: 294.56px 161.592px;" id="eldj2b67wqoct" class="animable"></path><path d="M292.34,154.75a.38.38,0,0,0,.37.06,2.86,2.86,0,0,1,2.58.15.37.37,0,0,0,.5-.09.35.35,0,0,0-.09-.49h0a3.56,3.56,0,0,0-3.25-.24.35.35,0,0,0-.21.46h0A.71.71,0,0,0,292.34,154.75Z" style="fill: rgb(38, 50, 56); transform-origin: 294.034px 154.438px;" id="elrr6bhuocv1l" class="animable"></path><path d="M303,156.82a.31.31,0,0,0,.21,0,.36.36,0,0,0,.06-.5h0a3.54,3.54,0,0,0-3-1.35.36.36,0,0,0-.31.39h0a.38.38,0,0,0,.39.32h0a2.87,2.87,0,0,1,2.35,1.1A.34.34,0,0,0,303,156.82Z" style="fill: rgb(38, 50, 56); transform-origin: 301.651px 155.901px;" id="elr85k759la8" class="animable"></path><path d="M308.9,149.06l-1.12,3.13a2.45,2.45,0,0,1,.52,3.29c-1.65,2.48-1.07,7,.63,9.17,0,0,.33-1.16,1.26-.66s-.73,6.55-3.32,9c0,0,3.51-2,6.62-8,2.86-5.58,4.17-10.48,3.48-13.05Z" style="fill: rgb(38, 50, 56); transform-origin: 312.01px 161.025px;" id="el275ppttlrpe" class="animable"></path><path d="M314.83,165.83a7.16,7.16,0,0,1-4.64,2.84c-2.47.36-3.4-1.92-2.46-4.1.85-1.92,3.16-4.5,5.52-3.85S316.18,163.94,314.83,165.83Z" style="fill: rgb(235, 179, 118); transform-origin: 311.459px 164.663px;" id="elf8fk6ow2l8v" class="animable"></path><path d="M317.15,153.54s1.7-4.06-4.24-8.81-14.06-2.55-17.9-6.36-6.52,7.86,2.71,11.23A77,77,0,0,0,317.15,153.54Z" style="fill: rgb(38, 50, 56); transform-origin: 304.42px 145.577px;" id="elnz7fqbbr19" class="animable"></path><path d="M295.6,166.63a22.33,22.33,0,0,1,1.82,2.68l.54-.21c2.4-.95,3.2-2.18,3.36-3.26a3.39,3.39,0,0,0-.18-1.57,3.22,3.22,0,0,0-.4-.81,12.21,12.21,0,0,1-4.33,2.84C295.92,166.52,295.6,166.63,295.6,166.63Z" style="fill: rgb(38, 50, 56); transform-origin: 298.472px 166.385px;" id="eljo2tofff3" class="animable"></path><path d="M296.41,166.3l.56.77c2.26-.9,3.73-1.83,4.17-2.8a3.22,3.22,0,0,0-.4-.81A12.21,12.21,0,0,1,296.41,166.3Z" style="fill: rgb(255, 255, 255); transform-origin: 298.775px 165.265px;" id="eltwiokjd6hgl" class="animable"></path><path d="M298,169.1c2.4-.95,3.2-2.18,3.36-3.26a8.16,8.16,0,0,0-2.46,1.58A3.07,3.07,0,0,0,298,169.1Z" style="fill: rgb(222, 87, 83); transform-origin: 299.68px 167.47px;" id="ele0t959rs6oa" class="animable"></path><path d="M294,178.72h4.38l2,8.08s4,18.41-10.93,60.95L278,240.64s6.8-24.49,6.69-37.07S284,185,284,185l9-3.08Z" style="fill: #77FFC0; transform-origin: 289.433px 213.235px;" id="elp2r96ty9hn" class="animable"></path><path d="M311.46,178.29,318,175.8l3.76,2.49,5.08,2a437.84,437.84,0,0,1,16.27,54.32l-2.26,2S329.5,195.94,320.74,187l-.32-5.07S316.28,178.4,311.46,178.29Z" style="fill: #77FFC0; transform-origin: 327.285px 206.205px;" id="elwutpevcl9" class="animable"></path><g id="el9k3llkzu5d5"><path d="M289.49,247.75,278,240.64s4.6-16.58,6.17-29.46a60,60,0,0,0,.51-7.6c0-.47,0-.93,0-1.37C284.52,190.57,284,185,284,185l9-3.09,1.06-3.23h4.38l2,8.08S304.44,205.21,289.49,247.75Z" style="fill: rgb(255, 255, 255); opacity: 0.6; transform-origin: 289.463px 213.215px;" class="animable" id="elccbgie33lj9"></path></g><g id="elv3rqak5fqj"><path d="M311.46,178.29,318,175.8l3.76,2.49,5.08,2a437.84,437.84,0,0,1,16.27,54.32l-2.26,2S329.5,195.94,320.74,187l-.32-5.07S316.28,178.4,311.46,178.29Z" style="fill: rgb(255, 255, 255); opacity: 0.6; transform-origin: 327.285px 206.205px;" class="animable" id="elmbakazao1p"></path></g><polygon points="298.41 178.72 296.41 184.41 291.35 181.26 294.03 178.72 298.41 178.72" style="fill: #77FFC0; transform-origin: 294.88px 181.565px;" id="el22c2kjtwljh" class="animable"></polygon><path d="M318,175.8,323.2,178,318,174.88l-6.87,3.44a22.74,22.74,0,0,1,9.26,3.63Z" style="fill: #77FFC0; transform-origin: 317.165px 178.415px;" id="elnczdzas76gt" class="animable"></path><g id="elxwrrwmosfi"><polygon points="298.41 178.72 296.41 184.41 291.35 181.26 294.03 178.72 298.41 178.72" style="fill: rgb(255, 255, 255); opacity: 0.7; transform-origin: 294.88px 181.565px;" class="animable" id="ell1xcr6t23oi"></polygon></g><g id="elnnnavjmis0s"><path d="M318,175.8,323.2,178,318,174.88l-6.87,3.44a22.74,22.74,0,0,1,9.26,3.63Z" style="fill: rgb(255, 255, 255); opacity: 0.7; transform-origin: 317.165px 178.415px;" class="animable" id="elmtt16ueqqwk"></path></g><g id="elfiy9vnqbc9"><path d="M287.93,202.25s-.48,6.05-3.76,8.93a60,60,0,0,0,.51-7.6c0-.47,0-.93,0-1.37A10,10,0,0,1,287.93,202.25Z" style="isolation: isolate; opacity: 0.2; transform-origin: 286.05px 206.638px;" class="animable" id="el2wtyv3zk89e"></path></g><path d="M352.26,197.85c-3.21-4.61-6.72-3.53-26.45-5.47v6.09c3.33.92,20.82,5.67,23.35,5.42C352,203.61,354.4,200.93,352.26,197.85Z" style="fill: rgb(235, 179, 118); transform-origin: 339.446px 198.14px;" id="elj9usouk8ld" class="animable"></path><path d="M326.16,192.36l-8.43,0,3.76,7.78s6.95-.45,6.56-4Z" style="fill: rgb(235, 179, 118); transform-origin: 322.898px 196.25px;" id="elqcg21j53d4m" class="animable"></path><polygon points="311.16 196.44 316.67 202.03 321.49 200.18 317.73 192.4 311.16 196.44" style="fill: rgb(235, 179, 118); transform-origin: 316.325px 197.215px;" id="elz8s9ry7lsea" class="animable"></polygon><path d="M326.16,192.36c.34.09,3.6,2,1.65,6.66l.26.59,1.45.33a5.25,5.25,0,0,0,.86-5.2A3.7,3.7,0,0,0,326.16,192.36Z" style="fill: rgb(38, 50, 56); transform-origin: 328.44px 196.113px;" id="elfi68xo448eq" class="animable"></path><polygon points="326.16 192.36 326.16 192.67 327.14 194.33 328.27 195.02 328.66 194.74 328.66 194.26 330.17 194.61 330.48 195.02 330.59 195.43 330.87 195.28 331.02 194.86 329.98 193.21 328.77 192.4 326.86 192.08 326.16 192.36" style="fill: #77FFC0; transform-origin: 328.59px 193.755px;" id="el50mrz948ou2" class="animable"></polygon><polygon points="327.6 192.7 328.21 193.75 330.15 194.16 329.65 193.21 327.6 192.7" style="fill: rgb(38, 50, 56); transform-origin: 328.875px 193.43px;" id="elpyeh17rls3g" class="animable"></polygon><path d="M284.23,233.52l4.35-2.42s-18.25-16.29-18.25-17.8,5.52-6.89,5.52-6.89l-7.64-5.86s-9.17,7.48-7.31,14S284.23,233.52,284.23,233.52Z" style="fill: rgb(235, 179, 118); transform-origin: 274.615px 217.035px;" id="el1qchup9zis7" class="animable"></path><path d="M288.19,230.07l7.76,3.27-6.46,5.74s-6.24-3.09-4.51-6.24Z" style="fill: rgb(235, 179, 118); transform-origin: 290.313px 234.575px;" id="el22qk6wf8klc" class="animable"></path><polygon points="300.46 239.6 293.24 242.65 289.49 239.08 295.95 233.34 300.46 239.6" style="fill: rgb(235, 179, 118); transform-origin: 294.975px 237.995px;" id="el6gbs1b35dyf" class="animable"></polygon><path d="M284,185c-6.09,2.86-18.21,17.17-18.21,17.17l9,10.41,13.15-10.37s1.29-8.29.25-12A9,9,0,0,0,284,185Z" style="fill: #77FFC0; transform-origin: 277.193px 198.79px;" id="elpb22mqx3h8j" class="animable"></path><g id="elv6vrlocv25c"><path d="M284,185c-6.09,2.86-18.21,17.17-18.21,17.17l9,10.41,13.15-10.37s1.29-8.29.25-12A9,9,0,0,0,284,185Z" style="fill: rgb(255, 255, 255); opacity: 0.6; transform-origin: 277.193px 198.79px;" class="animable" id="elpr2sxqwy9vf"></path></g><polygon points="264.57 202.7 265.75 200.93 275.73 212.57 274.01 214.13 264.57 202.7" style="fill: #77FFC0; transform-origin: 270.15px 207.53px;" id="elxxcg00bvvb" class="animable"></polygon><g id="el83n4pvd10bq"><polygon points="264.57 202.7 265.75 200.93 275.73 212.57 274.01 214.13 264.57 202.7" style="fill: rgb(255, 255, 255); opacity: 0.7; transform-origin: 270.15px 207.53px;" class="animable" id="el2wqwusu9ghd"></polygon></g><g id="elqyr62m9ndm"><polygon points="321.41 398.06 306.92 388.88 309.3 384.79 324.49 394.06 321.41 398.06" style="fill: rgb(255, 255, 255); opacity: 0.2; transform-origin: 315.705px 391.425px;" class="animable" id="eldk1jjesszn9"></polygon></g><g id="elwgmvawemmr"><polygon points="303.56 399.06 287.11 399.06 287.11 394.14 304.18 393.82 303.56 399.06" style="fill: rgb(255, 255, 255); opacity: 0.2; transform-origin: 295.645px 396.44px;" class="animable" id="elq0yx3qmwx7"></polygon></g></g><defs>     <filter id="active" height="200%">         <feMorphology in="SourceAlpha" result="DILATED" operator="dilate" radius="2"></feMorphology>                <feFlood flood-color="#32DFEC" flood-opacity="1" result="PINK"></feFlood>        <feComposite in="PINK" in2="DILATED" operator="in" result="OUTLINE"></feComposite>        <feMerge>            <feMergeNode in="OUTLINE"></feMergeNode>            <feMergeNode in="SourceGraphic"></feMergeNode>        </feMerge>    </filter>    <filter id="hover" height="200%">        <feMorphology in="SourceAlpha" result="DILATED" operator="dilate" radius="2"></feMorphology>                <feFlood flood-color="#ff0000" flood-opacity="0.5" result="PINK"></feFlood>        <feComposite in="PINK" in2="DILATED" operator="in" result="OUTLINE"></feComposite>        <feMerge>            <feMergeNode in="OUTLINE"></feMergeNode>            <feMergeNode in="SourceGraphic"></feMergeNode>        </feMerge>            <feColorMatrix type="matrix" values="0   0   0   0   0                0   1   0   0   0                0   0   0   0   0                0   0   0   1   0 "></feColorMatrix>    </filter></defs></svg>